<?xml version="1.0" encoding="UTF-8"?>
<svg id="Layer_1" data-name="Layer 1" xmlns="http://www.w3.org/2000/svg" xmlns:xlink="http://www.w3.org/1999/xlink" viewBox="0 0 313.68 162.74">
  <defs>
    <style>
      .cls-1 {
        fill: url(#linear-gradient);
      }

      .cls-1, .cls-2, .cls-3 {
        stroke-width: 0px;
      }

      .cls-2 {
        fill: url(#linear-gradient-2);
      }

      .cls-3 {
        fill: #fff;
      }
    </style>
    <linearGradient id="linear-gradient" x1="89.56" y1="82.18" x2="87.96" y2="259.86" gradientUnits="userSpaceOnUse">
      <stop offset="0" stop-color="#89cef1"/>
      <stop offset=".28" stop-color="#0068b2"/>
    </linearGradient>
    <linearGradient id="linear-gradient-2" x1="229.47" y1="162.72" x2="229.47" y2="-.01" gradientUnits="userSpaceOnUse">
      <stop offset="0" stop-color="#f9c7dd"/>
      <stop offset=".88" stop-color="#ae61a6"/>
    </linearGradient>
  </defs>
  <path class="cls-1" d="M177.69,161.53c-1.49.24-2.31.47-3.13.49-12.21.24-24.43.4-36.64.71-2.66.07-4.43-.81-6.13-2.88-12.84-15.57-25.79-31.04-38.72-46.54-2.24-2.68-4.42-5.42-6.86-7.91-.88-.9-2.42-1.6-3.67-1.62-8.42-.14-16.84-.04-25.25-.1-2.24-.02-3.21.98-3.91,3.07-5.81,17.52-11.74,35-17.64,52.49-.89,2.64-3.3,3.45-7.91,3.33-7.16-.18-14.32-.03-21.49-.13-1.92-.03-3.84-.44-6.34-.74,1.37-4.43,2.55-8.48,3.87-12.47,7.74-23.31,15.59-46.59,23.19-69.95.99-3.03,2.45-3.82,5.38-3.81,24.82.08,49.63.05,74.45.04,16.37,0,27.21-9.55,29.33-25.8,1.1-8.43-4.74-16.5-13.59-18.52-2.43-.56-4.97-.85-7.46-.85-23.07-.06-46.14-.12-69.2.04-3.67.02-5.76-1.29-7.59-4.36-5.02-8.42-10.35-16.66-15.86-25.44,1.39-.17,2.49-.43,3.59-.43,32.25-.02,64.51-.4,96.75.15,15.75.27,29.83,5.75,39.59,19.09,5.21,7.13,7.9,15.15,8.11,24.11.48,20.23-7.62,36.34-23.58,48.27-5.12,3.83-11.63,5.81-17.54,8.57-1.04.49-2.24.65-3.9,1.11,17.45,20.1,34.55,39.81,52.16,60.09Z"/>
  <path class="cls-2" d="M158.84,132.11c2.02-.1,3.39-.23,4.76-.23,20.77-.01,41.54-.07,62.31.01,16.27.07,30.31-5.17,41.1-17.56,7.46-8.58,12.07-18.52,13.13-30.09,1.06-11.64-1.12-22.39-7.56-32.12-8.96-13.54-21.57-21.34-37.92-21.72-18.57-.43-37.16-.17-55.75-.04-3.17.02-4.88-.92-6.19-3.93-5.17-11.83-13.66-20.38-25.94-24.9-.4-.15-.78-.37-1.16-.58-.08-.04-.1-.17-.36-.63,1.17-.07,2.18-.19,3.19-.19,30.61,0,61.22-.4,91.82.14,17.98.32,33.78,7.35,47.21,19.4,12.31,11.05,20.52,24.6,24.06,40.78,4.63,21.16,1.85,41.5-9.23,60.04-14.46,24.19-36.31,38.35-64.31,41.19-16.56,1.68-33.39.78-50.1.91-1.24,0-2.83-.78-3.67-1.72-8.35-9.32-16.57-18.74-25.38-28.76Z"/>
  <path class="cls-3" d="M204.26,105.21v-50.55c0-1.3,1.42-2.11,2.54-1.46,14.39,8.34,28.33,16.41,42.72,24.75,1.11.64,1.13,2.25.03,2.91-14.4,8.69-28.36,17.12-42.73,25.79-1.13.68-2.57-.13-2.57-1.44Z"/>
</svg>